<svg id="svg" xmlns="http://www.w3.org/2000/svg" xmlns:xlink="http://www.w3.org/1999/xlink" width="400" height="430.5657604702425" viewBox="0, 0, 400,430.5657604702425"><g id="svgg"><path id="path0" d="M192.212 33.235 C 75.551 39.120,-6.871 149.726,20.854 263.189 C 42.993 353.792,129.881 414.020,223.071 403.359 C 337.622 390.254,412.258 278.271,380.699 166.856 C 379.360 162.130,379.150 162.185,380.291 166.964 C 386.088 191.243,386.142 218.798,380.441 243.586 C 360.583 329.926,277.637 386.892,190.154 374.273 C 108.979 362.564,49.274 293.340,47.702 209.111 C 45.744 104.168,132.967 23.741,234.946 36.456 C 240.555 37.155,241.048 37.067,236.368 36.202 C 221.614 33.477,206.954 32.492,192.212 33.235 M254.666 69.533 C 227.204 73.787,210.184 96.990,217.894 119.664 C 221.990 131.710,230.891 137.349,245.849 137.374 C 259.790 137.396,270.748 133.212,280.741 124.050 C 289.186 116.308,294.019 103.423,292.325 93.167 C 289.473 75.895,274.452 66.469,254.666 69.533 M236.995 153.563 C 201.817 157.543,170.517 175.562,148.316 204.614 C 144.209 209.988,143.466 213.055,145.178 217.565 C 147.396 223.409,150.986 223.377,157.531 217.452 C 168.000 207.976,179.367 199.653,187.300 195.653 C 194.139 192.205,194.766 193.815,190.825 204.702 C 189.450 208.500,178.296 240.697,173.108 255.841 C 170.616 263.116,164.896 279.741,162.895 285.525 C 150.050 322.650,157.423 337.321,187.950 335.379 C 224.814 333.035,259.336 313.925,282.306 283.148 C 285.886 278.351,286.513 274.709,284.525 270.247 C 282.017 264.616,278.672 265.327,270.026 273.328 C 254.418 287.772,242.467 295.756,238.315 294.512 C 235.747 293.743,235.928 292.223,239.821 281.852 C 241.622 277.055,242.680 274.043,246.584 262.601 C 247.687 259.368,253.166 243.436,258.760 227.196 C 264.354 210.956,269.384 196.011,269.938 193.985 C 276.358 170.518,272.713 157.903,258.410 154.087 C 254.859 153.139,243.250 152.855,236.995 153.563 " stroke="none" fill="#635c8c" fill-rule="evenodd"></path><path id="path1" d="M0.000 215.283 L 0.000 430.566 200.000 430.566 L 400.000 430.566 400.000 215.283 L 400.000 0.000 200.000 0.000 L 0.000 0.000 0.000 215.283 M214.695 33.222 C 225.161 33.993,243.256 36.811,245.114 37.960 C 245.421 38.150,245.287 38.185,244.673 38.075 C 155.490 22.114,71.745 78.057,52.008 166.778 C 25.860 284.313,120.028 389.823,237.179 374.253 C 337.893 360.868,404.498 261.658,379.102 162.855 C 377.620 157.089,377.776 156.940,379.521 162.456 C 417.977 283.995,326.035 406.814,198.243 404.613 C 87.406 402.705,2.667 304.906,16.782 195.185 C 28.163 106.715,100.548 38.993,190.007 33.119 C 193.688 32.878,210.995 32.950,214.695 33.222 M270.977 69.815 C 298.212 76.800,300.467 111.821,274.789 128.997 C 263.141 136.788,247.857 139.783,235.810 136.635 C 213.343 130.764,208.850 100.689,227.668 82.134 C 238.230 71.720,257.278 66.301,270.977 69.815 M254.666 153.173 C 271.491 155.372,276.756 167.800,270.830 191.330 C 269.521 196.531,268.785 198.748,257.612 231.154 C 252.484 246.025,247.044 261.830,245.522 266.275 C 244.000 270.720,241.679 277.267,240.362 280.823 C 236.550 291.124,236.138 293.051,237.538 294.032 C 240.907 296.392,252.126 289.349,268.162 274.807 C 277.019 266.775,277.291 266.585,279.941 266.577 C 283.953 266.565,286.909 273.006,285.386 278.445 C 283.507 285.157,263.505 305.281,249.375 314.676 C 219.381 334.620,174.877 342.307,162.288 329.718 C 154.881 322.311,154.946 308.181,162.490 286.162 C 171.394 260.171,189.218 208.580,190.383 205.424 C 192.971 198.415,193.654 195.100,192.675 194.288 C 190.354 192.361,171.292 205.083,157.140 218.002 C 152.849 221.919,150.567 222.847,148.194 221.636 C 143.780 219.384,142.927 211.766,146.524 206.725 C 168.420 176.040,202.539 156.554,240.558 153.021 C 242.888 152.805,252.653 152.910,254.666 153.173 " stroke="none" fill="#fbfbfb" fill-rule="evenodd"></path><path id="path2" d="M259.295 68.976 C 259.578 69.049,260.040 69.049,260.323 68.976 C 260.606 68.902,260.375 68.841,259.809 68.841 C 259.243 68.841,259.012 68.902,259.295 68.976 M69.949 87.142 C 69.235 87.869,68.717 88.464,68.798 88.464 C 68.878 88.464,69.529 87.869,70.242 87.142 C 70.956 86.414,71.474 85.819,71.394 85.819 C 71.313 85.819,70.662 86.414,69.949 87.142 M243.424 153.031 C 243.707 153.105,244.170 153.105,244.453 153.031 C 244.735 152.957,244.504 152.897,243.938 152.897 C 243.373 152.897,243.141 152.957,243.424 153.031 M249.596 153.031 C 249.879 153.105,250.342 153.105,250.625 153.031 C 250.907 152.957,250.676 152.897,250.110 152.897 C 249.544 152.897,249.313 152.957,249.596 153.031 M160.315 190.522 L 158.266 192.652 160.397 190.603 C 162.376 188.700,162.662 188.391,162.446 188.391 C 162.401 188.391,161.443 189.350,160.315 190.522 M47.680 199.559 C 47.680 200.125,47.741 200.356,47.815 200.073 C 47.889 199.791,47.889 199.328,47.815 199.045 C 47.741 198.762,47.680 198.993,47.680 199.559 M384.507 200.882 C 384.509 201.690,384.567 201.986,384.634 201.539 C 384.702 201.092,384.700 200.431,384.630 200.069 C 384.560 199.708,384.505 200.073,384.507 200.882 M384.507 210.287 C 384.509 211.095,384.567 211.391,384.634 210.944 C 384.702 210.497,384.700 209.836,384.630 209.474 C 384.560 209.113,384.505 209.478,384.507 210.287 M47.686 211.756 C 47.689 212.403,47.750 212.633,47.820 212.267 C 47.890 211.901,47.888 211.372,47.814 211.091 C 47.740 210.810,47.683 211.109,47.686 211.756 M388.038 214.254 C 388.038 215.143,388.093 215.507,388.161 215.062 C 388.228 214.618,388.228 213.891,388.161 213.446 C 388.093 213.001,388.038 213.365,388.038 214.254 M15.374 214.695 C 15.376 215.665,15.430 216.026,15.496 215.498 C 15.561 214.970,15.560 214.176,15.493 213.735 C 15.426 213.293,15.372 213.725,15.374 214.695 M15.371 223.071 C 15.371 223.960,15.426 224.324,15.493 223.880 C 15.561 223.435,15.561 222.708,15.493 222.263 C 15.426 221.819,15.371 222.182,15.371 223.071 M388.038 223.365 C 388.038 224.254,388.093 224.618,388.161 224.173 C 388.228 223.729,388.228 223.001,388.161 222.557 C 388.093 222.112,388.038 222.476,388.038 223.365 M333.568 327.039 L 331.962 328.729 333.652 327.122 C 335.222 325.630,335.476 325.349,335.258 325.349 C 335.212 325.349,334.452 326.109,333.568 327.039 M221.381 375.809 C 221.664 375.883,222.127 375.883,222.410 375.809 C 222.693 375.735,222.461 375.674,221.896 375.674 C 221.330 375.674,221.098 375.735,221.381 375.809 M194.342 404.611 C 194.625 404.685,195.088 404.685,195.371 404.611 C 195.654 404.537,195.422 404.477,194.857 404.477 C 194.291 404.477,194.060 404.537,194.342 404.611 M208.156 404.611 C 208.439 404.685,208.902 404.685,209.184 404.611 C 209.467 404.537,209.236 404.477,208.670 404.477 C 208.104 404.477,207.873 404.537,208.156 404.611 " stroke="none" fill="#b5b4cc" fill-rule="evenodd"></path><path id="path3" d="M194.783 33.124 C 195.147 33.194,195.742 33.194,196.106 33.124 C 196.470 33.054,196.172 32.997,195.445 32.997 C 194.717 32.997,194.420 33.054,194.783 33.124 M207.421 33.124 C 207.785 33.194,208.380 33.194,208.744 33.124 C 209.107 33.054,208.810 32.997,208.082 32.997 C 207.355 32.997,207.057 33.054,207.421 33.124 M222.557 35.471 C 222.840 35.545,223.303 35.545,223.586 35.471 C 223.868 35.397,223.637 35.336,223.071 35.336 C 222.506 35.336,222.274 35.397,222.557 35.471 M261.356 68.984 C 261.803 69.051,262.464 69.050,262.825 68.980 C 263.187 68.910,262.821 68.855,262.013 68.857 C 261.205 68.859,260.909 68.916,261.356 68.984 M244.600 137.760 C 245.206 137.823,246.198 137.823,246.804 137.760 C 247.410 137.697,246.914 137.645,245.702 137.645 C 244.489 137.645,243.993 137.697,244.600 137.760 M245.930 153.044 C 246.621 153.106,247.679 153.106,248.281 153.042 C 248.883 152.979,248.317 152.928,247.024 152.930 C 245.731 152.931,245.239 152.982,245.930 153.044 M47.686 197.649 C 47.689 198.295,47.750 198.525,47.820 198.160 C 47.890 197.794,47.888 197.265,47.814 196.984 C 47.740 196.703,47.683 197.002,47.686 197.649 M384.491 198.677 C 384.491 199.243,384.552 199.475,384.626 199.192 C 384.700 198.909,384.700 198.446,384.626 198.163 C 384.552 197.880,384.491 198.112,384.491 198.677 M384.491 212.491 C 384.491 213.057,384.552 213.288,384.626 213.005 C 384.700 212.722,384.700 212.259,384.626 211.976 C 384.552 211.694,384.491 211.925,384.491 212.491 M47.680 213.666 C 47.680 214.232,47.741 214.464,47.815 214.181 C 47.889 213.898,47.889 213.435,47.815 213.152 C 47.741 212.869,47.680 213.101,47.680 213.666 M388.060 218.810 C 388.061 220.588,388.109 221.277,388.168 220.342 C 388.226 219.407,388.226 217.952,388.166 217.109 C 388.107 216.266,388.059 217.032,388.060 218.810 M15.389 218.957 C 15.389 220.492,15.438 221.120,15.499 220.353 C 15.559 219.585,15.559 218.328,15.499 217.561 C 15.438 216.793,15.389 217.421,15.389 218.957 M270.961 296.473 L 269.949 297.575 271.051 296.562 C 271.657 296.005,272.153 295.509,272.153 295.460 C 272.153 295.236,271.904 295.447,270.961 296.473 M267.435 300.000 L 266.422 301.102 267.524 300.089 C 268.550 299.147,268.761 298.898,268.537 298.898 C 268.488 298.898,267.992 299.394,267.435 300.000 M196.547 404.621 C 197.072 404.686,197.932 404.686,198.457 404.621 C 198.982 404.556,198.553 404.503,197.502 404.503 C 196.451 404.503,196.021 404.556,196.547 404.621 M205.070 404.621 C 205.595 404.686,206.455 404.686,206.980 404.621 C 207.506 404.556,207.076 404.503,206.025 404.503 C 204.974 404.503,204.544 404.556,205.070 404.621 " stroke="none" fill="#9b9cb5" fill-rule="evenodd"></path><path id="path4" d="M208.303 35.476 C 208.666 35.546,209.262 35.546,209.625 35.476 C 209.989 35.406,209.691 35.348,208.964 35.348 C 208.237 35.348,207.939 35.406,208.303 35.476 M218.883 35.476 C 219.247 35.546,219.842 35.546,220.206 35.476 C 220.569 35.406,220.272 35.348,219.544 35.348 C 218.817 35.348,218.519 35.406,218.883 35.476 M227.170 82.513 L 226.157 83.615 227.259 82.602 C 228.285 81.659,228.497 81.411,228.272 81.411 C 228.223 81.411,227.727 81.907,227.170 82.513 M72.284 84.864 L 71.271 85.966 72.373 84.953 C 73.399 84.011,73.611 83.762,73.386 83.762 C 73.337 83.762,72.841 84.258,72.284 84.864 M66.844 90.301 L 65.981 91.256 66.936 90.393 C 67.461 89.918,67.891 89.489,67.891 89.438 C 67.891 89.211,67.649 89.411,66.844 90.301 M292.817 97.722 C 292.819 98.692,292.874 99.053,292.939 98.525 C 293.004 97.997,293.003 97.203,292.936 96.762 C 292.869 96.320,292.815 96.752,292.817 97.722 M215.815 108.597 C 215.816 109.566,215.871 109.928,215.937 109.400 C 216.002 108.871,216.001 108.078,215.934 107.636 C 215.867 107.195,215.813 107.627,215.815 108.597 M273.131 175.018 C 273.132 176.150,273.185 176.577,273.249 175.967 C 273.313 175.357,273.312 174.431,273.247 173.910 C 273.182 173.388,273.130 173.887,273.131 175.018 M47.711 202.498 C 47.711 203.711,47.763 204.206,47.826 203.600 C 47.890 202.994,47.890 202.002,47.826 201.396 C 47.763 200.790,47.711 201.286,47.711 202.498 M384.535 205.584 C 384.536 207.524,384.584 208.279,384.641 207.263 C 384.699 206.246,384.698 204.659,384.640 203.736 C 384.582 202.813,384.535 203.644,384.535 205.584 M47.708 208.817 C 47.710 209.949,47.763 210.375,47.827 209.766 C 47.890 209.156,47.889 208.230,47.824 207.708 C 47.759 207.187,47.707 207.686,47.708 208.817 M388.024 211.756 C 388.027 212.403,388.088 212.633,388.158 212.267 C 388.228 211.901,388.226 211.372,388.152 211.091 C 388.078 210.810,388.021 211.109,388.024 211.756 M15.357 212.050 C 15.360 212.697,15.420 212.926,15.491 212.561 C 15.561 212.195,15.558 211.666,15.485 211.385 C 15.411 211.104,15.354 211.403,15.357 212.050 M15.357 225.569 C 15.360 226.216,15.420 226.446,15.491 226.080 C 15.561 225.715,15.558 225.186,15.485 224.905 C 15.411 224.624,15.354 224.923,15.357 225.569 M388.024 225.863 C 388.027 226.510,388.088 226.740,388.158 226.374 C 388.228 226.009,388.226 225.480,388.152 225.199 C 388.078 224.918,388.021 225.217,388.024 225.863 M156.748 313.593 C 156.748 314.805,156.800 315.301,156.864 314.695 C 156.927 314.089,156.927 313.097,156.864 312.491 C 156.800 311.885,156.748 312.381,156.748 313.593 M333.719 350.110 L 331.080 352.829 333.799 350.190 C 335.294 348.738,336.517 347.515,336.517 347.471 C 336.517 347.258,336.170 347.585,333.719 350.110 M69.655 350.184 C 71.022 351.558,72.206 352.682,72.287 352.682 C 72.368 352.682,71.315 351.558,69.949 350.184 C 68.582 348.810,67.397 347.686,67.316 347.686 C 67.236 347.686,68.288 348.810,69.655 350.184 M208.012 375.814 C 208.378 375.884,208.907 375.882,209.188 375.808 C 209.469 375.735,209.170 375.677,208.523 375.680 C 207.877 375.684,207.647 375.744,208.012 375.814 M219.474 375.814 C 219.840 375.884,220.369 375.882,220.650 375.808 C 220.931 375.735,220.632 375.677,219.985 375.680 C 219.339 375.684,219.109 375.744,219.474 375.814 M192.579 404.611 C 192.862 404.685,193.325 404.685,193.608 404.611 C 193.891 404.537,193.659 404.477,193.093 404.477 C 192.528 404.477,192.296 404.537,192.579 404.611 M209.919 404.611 C 210.202 404.685,210.665 404.685,210.948 404.611 C 211.231 404.537,210.999 404.477,210.434 404.477 C 209.868 404.477,209.636 404.537,209.919 404.611 " stroke="none" fill="#d5d5ea" fill-rule="evenodd"></path></g></svg>